<?xml version="1.0" encoding="UTF-8" standalone="no"?>
<!DOCTYPE svg PUBLIC "-//W3C//DTD SVG 1.1//EN" "http://www.w3.org/Graphics/SVG/1.1/DTD/svg11.dtd">
<svg xmlns="http://www.w3.org/2000/svg" version="1.1" viewBox="0.00 0.00 1691.00 1860.00">
<path fill="#000000" d="
  M 1157.50 149.40
  Q 1157.88 151.37 1158.04 153.25
  Q 1160.58 183.78 1157.26 212.81
  Q 1156.45 219.86 1155.00 227.14
  C 1153.60 234.23 1153.68 239.61 1151.89 246.21
  Q 1147.85 261.13 1147.00 263.37
  C 1145.99 266.05 1145.72 270.42 1144.60 273.08
  Q 1141.65 280.06 1140.12 285.45
  C 1138.63 290.72 1135.78 296.59 1133.42 301.42
  C 1132.57 303.17 1132.13 305.77 1131.42 307.15
  Q 1128.70 312.40 1123.54 323.22
  C 1122.45 325.53 1120.45 327.86 1119.51 330.04
  Q 1117.22 335.38 1114.42 339.33
  C 1111.64 343.26 1110.29 347.11 1107.10 351.25
  C 1104.32 354.85 1102.83 358.60 1099.84 361.94
  A 7.36 7.21 -11.8 0 0 1098.69 363.66
  C 1096.66 367.84 1093.21 371.12 1090.55 375.21
  Q 1089.02 377.57 1083.83 383.68
  A 7.29 6.57 83.2 0 0 1083.13 384.67
  Q 1081.48 387.45 1078.88 389.88
  A 7.97 7.94 85.0 0 0 1077.61 391.40
  Q 1074.80 395.76 1071.39 398.70
  A 7.83 7.75 -3.9 0 0 1069.99 400.29
  C 1068.31 402.85 1065.93 404.72 1064.23 406.78
  Q 1061.03 410.68 1053.52 418.26
  Q 1052.48 419.30 1052.27 419.52
  Q 1045.84 426.04 1041.40 430.15
  Q 1036.59 434.59 1035.98 435.23
  C 1032.79 438.57 1029.31 440.71 1026.03 444.21
  A 5.41 5.39 -84.2 0 1 1024.88 445.15
  C 1021.82 447.04 1019.12 449.93 1016.24 452.14
  Q 1003.19 462.19 995.32 467.32
  C 992.48 469.16 989.76 471.53 986.62 473.23
  Q 982.93 475.24 980.18 477.08
  C 974.73 480.72 969.88 482.35 964.10 486.18
  C 961.74 487.74 959.09 488.05 956.72 489.39
  C 953.55 491.19 948.97 493.54 944.55 495.11
  Q 937.99 497.44 934.00 499.22
  Q 929.48 501.25 926.54 501.87
  C 918.90 503.47 911.54 506.41 903.98 508.21
  C 901.54 508.79 898.59 508.85 896.03 509.35
  C 876.14 513.20 857.20 514.67 837.49 512.61
  A 0.67 0.67 0.0 0 1 836.90 512.03
  Q 835.86 504.42 835.70 502.50
  Q 833.43 474.92 837.63 447.52
  Q 838.18 443.89 838.65 438.44
  Q 839.00 434.34 840.16 429.43
  Q 843.87 413.82 844.87 411.39
  Q 845.65 409.48 846.12 405.49
  Q 846.45 402.68 847.66 399.64
  Q 848.59 397.30 851.32 389.88
  C 852.22 387.46 852.19 385.63 853.02 383.51
  Q 855.33 377.64 858.52 370.68
  C 859.58 368.36 859.82 365.82 861.11 363.39
  Q 863.32 359.23 865.79 353.79
  Q 868.27 348.31 870.19 344.99
  Q 872.94 340.23 873.80 337.33
  A 7.31 7.21 -18.6 0 1 874.95 335.05
  Q 878.22 330.73 881.69 323.52
  A 12.76 12.01 -15.6 0 1 882.94 321.45
  Q 885.49 318.03 888.02 313.57
  Q 890.41 309.32 891.98 307.41
  C 893.99 304.96 895.31 302.18 897.48 299.30
  C 903.23 291.69 909.36 283.13 915.29 275.94
  Q 924.05 265.32 932.64 256.38
  Q 936.59 252.27 937.02 251.55
  A 3.63 3.62 88.7 0 1 938.08 250.44
  Q 939.66 249.39 943.61 245.36
  Q 947.98 240.89 958.29 232.05
  Q 963.05 227.96 978.89 216.17
  Q 987.94 209.43 1002.91 200.38
  Q 1012.63 194.51 1013.61 194.08
  Q 1018.01 192.17 1021.11 189.97
  C 1024.76 187.37 1031.09 185.34 1035.54 182.53
  Q 1037.67 181.20 1042.61 179.59
  Q 1043.59 179.27 1048.43 176.72
  C 1053.47 174.07 1059.05 172.72 1063.82 170.47
  C 1066.21 169.34 1070.20 167.38 1073.75 166.37
  Q 1081.37 164.20 1091.55 160.28
  C 1094.41 159.18 1098.05 159.09 1101.15 158.19
  Q 1108.31 156.10 1113.68 154.73
  Q 1120.04 153.11 1125.38 152.41
  Q 1136.35 150.96 1137.16 150.84
  Q 1149.52 148.94 1156.78 148.82
  A 0.72 0.72 0.0 0 1 1157.50 149.40
  Z"
/>
<path fill="#000000" d="
  M 1481.95 1277.15
  A 1.74 1.73 23.6 0 1 1482.81 1279.34
  L 1475.69 1297.46
  A 0.86 0.67 -38.0 0 0 1475.66 1297.58
  C 1474.91 1302.62 1472.47 1307.05 1470.41 1311.88
  Q 1469.53 1313.93 1467.88 1319.23
  C 1466.08 1324.99 1462.87 1329.90 1461.52 1335.21
  Q 1460.51 1339.18 1457.47 1345.02
  Q 1456.06 1347.73 1453.82 1354.05
  Q 1452.29 1358.38 1448.97 1364.16
  A 14.71 14.65 -21.5 0 0 1447.73 1366.99
  C 1446.13 1372.02 1442.88 1376.80 1441.76 1379.73
  Q 1439.24 1386.32 1437.71 1388.70
  Q 1434.68 1393.39 1432.80 1398.50
  Q 1431.82 1401.17 1428.03 1407.20
  A 24.80 24.07 -17.6 0 0 1426.39 1410.25
  C 1423.92 1415.73 1421.21 1419.38 1419.03 1424.45
  Q 1418.17 1426.44 1414.13 1432.51
  A 9.93 9.67 72.5 0 0 1413.05 1434.65
  Q 1411.91 1437.75 1410.16 1440.12
  C 1407.30 1443.99 1406.25 1446.56 1403.08 1452.28
  A 5.82 5.31 -12.1 0 1 1402.36 1453.29
  Q 1399.91 1455.98 1398.42 1459.61
  A 5.45 5.41 74.1 0 1 1397.74 1460.84
  C 1396.06 1463.16 1392.57 1468.37 1390.75 1471.83
  C 1389.32 1474.53 1387.27 1476.35 1385.60 1479.20
  Q 1381.99 1485.33 1375.29 1495.03
  Q 1375.21 1495.14 1373.87 1496.61
  A 2.51 1.59 -84.1 0 0 1373.68 1496.85
  L 1361.38 1514.82
  A 2.56 1.21 -25.6 0 1 1361.20 1515.04
  Q 1358.25 1518.04 1356.06 1522.10
  A 7.79 7.65 81.8 0 1 1354.87 1523.72
  Q 1353.18 1525.47 1352.00 1527.25
  Q 1347.97 1533.31 1343.20 1538.95
  A 4.81 4.74 -12.1 0 0 1342.59 1539.88
  Q 1341.14 1542.65 1339.24 1544.63
  Q 1336.39 1547.61 1335.73 1549.20
  C 1334.81 1551.42 1331.91 1553.81 1330.12 1556.29
  Q 1325.09 1563.24 1317.82 1571.80
  Q 1315.08 1575.03 1313.87 1576.84
  C 1312.30 1579.21 1310.18 1580.76 1308.17 1583.20
  Q 1284.27 1612.30 1255.24 1636.69
  Q 1247.99 1642.78 1242.93 1646.38
  Q 1233.22 1653.29 1230.06 1655.30
  Q 1224.16 1659.05 1216.98 1662.93
  Q 1209.68 1666.88 1208.94 1667.29
  Q 1205.48 1669.23 1200.64 1671.09
  C 1193.06 1673.98 1186.68 1677.38 1179.50 1678.86
  Q 1177.74 1679.22 1168.69 1681.94
  C 1163.31 1683.56 1155.53 1685.17 1148.67 1685.63
  Q 1140.09 1686.21 1133.51 1686.77
  Q 1126.53 1687.36 1111.32 1686.01
  C 1107.26 1685.65 1103.12 1685.94 1100.05 1685.43
  Q 1084.78 1682.85 1070.69 1679.05
  Q 1069.00 1678.60 1065.93 1678.36
  A 10.93 10.81 55.8 0 1 1063.54 1677.89
  Q 1049.37 1673.38 1046.23 1672.27
  C 1042.24 1670.87 1037.94 1670.48 1034.06 1668.68
  Q 1027.72 1665.74 1021.42 1664.39
  A 7.22 6.76 60.9 0 1 1020.17 1663.99
  Q 1017.03 1662.65 1006.52 1658.12
  C 1005.14 1657.53 1003.13 1657.06 1001.65 1656.57
  C 997.41 1655.19 991.21 1651.87 985.62 1650.16
  Q 980.39 1648.57 972.22 1645.26
  C 967.89 1643.51 964.06 1643.37 960.06 1641.91
  Q 953.12 1639.38 944.16 1636.87
  C 942.07 1636.28 939.79 1636.36 937.47 1635.76
  Q 925.81 1632.74 911.77 1630.12
  C 905.41 1628.93 899.68 1629.22 892.87 1628.32
  Q 886.86 1627.53 880.09 1627.27
  C 874.82 1627.06 868.70 1626.53 862.97 1626.77
  Q 848.18 1627.39 836.58 1628.69
  C 831.09 1629.30 824.27 1629.19 817.97 1630.45
  C 811.00 1631.85 803.67 1633.08 796.76 1635.01
  Q 794.12 1635.75 788.01 1636.79
  Q 783.74 1637.52 774.55 1640.55
  Q 768.54 1642.53 761.59 1644.30
  Q 756.02 1645.72 748.22 1649.16
  A 14.31 13.95 -63.2 0 1 745.98 1649.93
  Q 739.86 1651.45 736.36 1653.11
  C 730.57 1655.87 725.00 1657.15 719.38 1659.71
  Q 713.37 1662.45 711.19 1663.18
  Q 697.32 1667.80 693.00 1669.84
  C 691.11 1670.74 688.24 1670.89 686.14 1671.66
  Q 682.14 1673.12 668.14 1677.90
  Q 667.35 1678.17 663.62 1678.65
  A 17.61 17.34 32.4 0 0 660.64 1679.29
  Q 653.14 1681.60 643.57 1684.09
  C 637.83 1685.58 631.29 1685.77 625.48 1686.71
  Q 599.16 1690.96 573.04 1686.29
  C 569.16 1685.60 565.47 1685.53 561.34 1684.17
  Q 552.37 1681.20 548.78 1679.72
  C 546.30 1678.70 542.64 1678.22 539.71 1676.78
  Q 534.31 1674.12 528.91 1671.35
  Q 528.88 1671.34 526.26 1670.43
  A 5.19 5.14 69.7 0 1 525.25 1669.96
  Q 520.13 1666.88 516.76 1665.19
  Q 513.80 1663.70 508.63 1660.27
  Q 498.76 1653.72 493.36 1649.95
  C 489.99 1647.60 487.14 1644.55 483.65 1642.59
  A 5.49 5.40 83.2 0 1 482.30 1641.51
  C 479.71 1638.60 476.31 1636.54 473.80 1634.06
  Q 473.09 1633.35 460.53 1622.01
  C 446.45 1609.31 434.00 1595.20 420.52 1580.05
  Q 418.78 1578.10 417.67 1576.40
  C 416.54 1574.69 414.95 1573.49 413.45 1571.63
  Q 401.30 1556.51 393.03 1545.99
  Q 390.87 1543.25 390.24 1542.29
  C 387.95 1538.84 385.55 1536.88 383.61 1533.45
  C 382.40 1531.31 379.91 1529.08 378.37 1526.75
  Q 374.39 1520.75 370.66 1516.43
  A 6.56 6.52 -78.5 0 1 369.74 1515.03
  Q 368.41 1512.26 365.62 1509.34
  A 6.95 6.55 -85.3 0 1 364.78 1508.29
  C 363.68 1506.60 362.77 1504.65 361.44 1503.10
  Q 358.35 1499.53 354.92 1494.06
  C 353.33 1491.54 351.02 1489.62 349.46 1486.74
  Q 347.56 1483.25 345.20 1480.61
  A 10.28 10.26 -80.5 0 1 343.87 1478.74
  Q 340.77 1473.14 336.81 1468.11
  C 335.71 1466.72 334.76 1464.81 334.25 1463.46
  A 5.53 5.41 14.4 0 0 333.20 1461.73
  C 329.53 1457.59 326.94 1451.11 323.76 1447.13
  C 321.65 1444.49 320.45 1441.01 318.30 1437.73
  C 315.03 1432.75 312.50 1427.38 309.51 1422.94
  C 307.18 1419.49 306.29 1415.94 304.13 1412.97
  C 301.42 1409.25 299.22 1403.54 296.45 1398.81
  C 293.57 1393.90 292.06 1389.62 289.28 1384.94
  Q 286.72 1380.65 284.57 1375.28
  C 283.27 1372.03 281.41 1369.80 280.01 1366.35
  C 277.20 1359.42 273.78 1354.09 271.39 1347.30
  Q 270.24 1344.06 267.85 1339.74
  C 265.67 1335.81 264.30 1330.46 262.28 1326.45
  Q 259.60 1321.13 258.12 1316.60
  C 256.52 1311.69 253.35 1305.59 251.98 1301.50
  Q 249.02 1292.64 245.56 1285.19
  C 244.02 1281.89 243.47 1277.31 241.71 1273.53
  Q 239.55 1268.89 238.19 1264.42
  Q 235.62 1255.97 234.81 1253.91
  C 233.57 1250.77 230.77 1243.64 229.58 1238.09
  Q 229.17 1236.15 224.22 1222.25
  C 222.68 1217.93 222.50 1213.84 221.08 1209.93
  Q 218.11 1201.77 216.72 1194.86
  C 215.14 1187.02 212.59 1178.48 210.30 1171.02
  C 208.85 1166.27 208.66 1161.24 207.48 1156.74
  Q 203.23 1140.51 201.99 1132.35
  C 200.99 1125.79 199.46 1117.49 196.85 1104.18
  Q 195.84 1098.99 195.48 1093.89
  Q 195.01 1087.03 194.40 1083.51
  Q 191.36 1066.01 188.68 1036.26
  Q 187.73 1025.77 187.89 1015.70
  Q 187.95 1011.98 187.22 995.13
  Q 186.64 981.87 187.60 954.40
  C 187.88 946.48 187.60 938.43 188.05 932.76
  Q 190.23 905.63 194.46 882.34
  C 195.33 877.50 195.27 872.19 196.22 867.99
  Q 199.65 852.80 201.12 846.38
  C 201.58 844.38 201.67 842.02 202.20 839.94
  Q 204.81 829.62 207.13 822.81
  C 208.64 818.36 208.81 814.58 210.26 810.45
  Q 212.60 803.75 215.69 795.67
  A 9.98 9.62 -30.7 0 0 216.18 793.89
  C 216.90 789.90 218.60 786.05 220.27 782.59
  Q 221.42 780.22 222.93 775.34
  Q 224.63 769.85 229.11 761.24
  A 7.88 7.60 -25.5 0 0 229.71 759.64
  C 230.67 755.81 233.23 751.12 234.35 749.11
  C 236.79 744.72 239.14 738.37 242.09 733.60
  C 243.33 731.59 243.92 729.26 245.20 727.32
  Q 248.58 722.17 251.93 715.62
  C 253.18 713.17 255.65 710.32 256.62 708.36
  Q 259.53 702.48 263.60 697.10
  Q 263.89 696.72 264.75 694.89
  A 9.34 8.84 -15.3 0 1 265.66 693.39
  C 269.92 687.75 274.03 681.05 278.60 674.98
  Q 294.68 653.59 310.65 636.89
  Q 324.07 622.86 332.78 615.53
  Q 333.62 614.82 348.56 602.07
  C 351.16 599.85 354.04 598.39 356.47 595.81
  A 5.04 5.04 0.0 0 1 357.43 595.01
  Q 360.93 592.78 370.79 585.78
  Q 378.47 580.32 384.18 576.79
  Q 388.64 574.03 398.80 567.99
  C 403.12 565.42 408.19 563.47 411.97 560.54
  A 10.97 10.87 15.2 0 1 414.65 559.02
  C 421.33 556.35 427.12 552.47 433.46 550.28
  C 437.59 548.84 441.23 546.51 445.56 545.11
  Q 452.23 542.95 462.92 538.24
  A 12.28 12.18 -63.0 0 1 465.32 537.45
  C 473.36 535.66 481.07 532.43 486.94 530.67
  C 489.94 529.77 493.14 529.60 496.42 528.75
  Q 510.31 525.16 515.27 524.02
  C 518.75 523.22 523.05 523.40 526.50 522.73
  Q 539.20 520.26 552.75 519.03
  Q 570.35 517.42 580.13 517.21
  C 596.22 516.86 613.07 518.88 628.61 522.25
  C 633.85 523.38 640.33 523.73 646.05 525.45
  Q 656.64 528.62 666.52 530.49
  Q 670.01 531.15 685.20 536.53
  Q 686.18 536.87 689.94 537.34
  A 3.12 2.80 55.3 0 1 690.61 537.50
  L 708.30 544.00
  A 3.45 3.34 -30.0 0 0 708.98 544.17
  C 712.98 544.70 717.06 546.69 723.07 549.20
  C 725.16 550.07 726.83 550.33 728.77 550.82
  A 19.30 19.23 64.1 0 1 732.01 551.95
  Q 741.48 556.20 744.37 557.09
  Q 754.45 560.18 756.62 561.19
  Q 762.86 564.09 768.72 565.55
  Q 771.30 566.19 783.84 570.81
  A 16.39 16.25 60.8 0 0 786.21 571.49
  Q 789.22 572.12 789.89 572.35
  C 798.79 575.41 805.24 577.94 811.56 579.02
  Q 813.13 579.29 815.96 580.09
  Q 825.93 582.92 834.02 584.71
  Q 846.45 587.46 858.72 584.00
  Q 871.39 580.43 873.94 579.50
  A 8.79 8.77 31.6 0 1 876.00 579.01
  Q 879.12 578.65 879.88 578.38
  Q 895.45 573.03 896.81 572.57
  C 898.78 571.89 901.61 571.48 903.70 570.71
  Q 917.22 565.73 917.40 565.68
  A 11.57 10.80 -54.2 0 1 918.94 565.29
  C 925.92 563.96 931.65 560.50 937.80 558.71
  Q 945.67 556.42 948.06 555.40
  C 953.44 553.11 957.30 551.22 961.88 550.35
  A 10.01 9.89 26.9 0 0 964.26 549.59
  Q 970.40 546.73 976.60 544.84
  C 983.79 542.64 989.20 540.55 995.46 538.19
  C 997.64 537.37 1001.05 537.02 1003.47 536.16
  Q 1011.20 533.40 1019.26 530.81
  C 1022.72 529.69 1025.26 529.77 1028.49 528.82
  C 1036.95 526.32 1043.22 523.89 1050.63 523.27
  C 1055.22 522.88 1060.11 520.80 1064.86 520.09
  Q 1066.48 519.84 1082.36 516.74
  C 1087.64 515.71 1092.08 516.11 1097.09 515.52
  Q 1128.35 511.82 1157.63 515.16
  C 1163.77 515.86 1169.49 515.74 1175.42 516.61
  Q 1196.56 519.71 1211.02 522.94
  C 1213.52 523.49 1217.17 523.42 1220.00 524.11
  Q 1226.35 525.67 1234.05 527.96
  C 1237.82 529.09 1241.01 529.51 1244.25 530.23
  Q 1247.52 530.95 1262.42 536.33
  Q 1263.32 536.66 1266.14 537.18
  A 13.04 12.79 60.2 0 1 1268.52 537.85
  C 1275.20 540.43 1280.07 542.74 1286.97 545.01
  Q 1290.90 546.31 1295.69 548.86
  A 15.91 15.62 67.8 0 0 1298.20 549.94
  Q 1303.58 551.72 1304.28 552.14
  Q 1308.73 554.80 1313.72 557.03
  Q 1320.53 560.09 1323.18 562.07
  Q 1324.63 563.15 1330.30 565.87
  Q 1332.45 566.89 1337.22 569.86
  Q 1345.87 575.23 1351.21 578.73
  C 1355.36 581.44 1357.88 583.53 1361.97 586.38
  Q 1371.06 592.71 1382.74 602.51
  Q 1383.26 602.95 1385.58 605.31
  A 10.45 10.05 -3.6 0 0 1386.97 606.49
  Q 1390.21 608.78 1392.51 611.52
  A 7.40 7.26 87.4 0 0 1393.92 612.83
  C 1394.88 613.52 1396.78 614.74 1397.72 615.93
  Q 1400.70 619.71 1402.52 621.01
  Q 1404.47 622.41 1405.73 624.27
  C 1407.55 626.95 1411.14 629.36 1412.95 631.94
  C 1414.40 634.00 1416.41 635.35 1418.35 637.69
  Q 1422.36 642.54 1430.68 652.78
  C 1433.56 656.31 1435.62 660.26 1438.69 663.00
  C 1439.87 664.06 1440.81 666.05 1441.11 667.42
  A 1.87 1.86 73.4 0 1 1439.95 669.58
  C 1438.41 670.16 1435.72 670.97 1433.95 672.56
  C 1431.75 674.52 1429.01 675.76 1426.38 677.49
  Q 1393.17 699.39 1365.66 725.92
  Q 1359.20 732.15 1346.82 745.83
  Q 1342.33 750.79 1341.27 752.53
  A 6.76 6.73 -6.7 0 1 1340.31 753.74
  Q 1337.49 756.51 1335.52 759.84
  A 5.23 5.23 0.0 0 1 1334.97 760.61
  Q 1330.43 765.76 1329.78 766.79
  Q 1326.38 772.13 1325.15 773.62
  C 1322.29 777.13 1320.81 780.32 1318.39 783.72
  Q 1315.78 787.37 1313.79 791.32
  C 1311.98 794.89 1309.45 797.85 1307.84 801.58
  C 1305.56 806.87 1302.12 811.46 1300.17 816.72
  C 1298.30 821.74 1295.32 826.07 1293.87 831.15
  Q 1293.26 833.31 1289.84 841.11
  Q 1287.85 845.67 1286.31 851.21
  Q 1284.30 858.45 1279.86 871.69
  C 1279.17 873.75 1279.12 877.88 1278.43 880.66
  Q 1276.30 889.29 1274.51 898.25
  C 1273.13 905.17 1272.90 913.44 1272.17 919.59
  Q 1267.55 958.61 1272.26 998.68
  Q 1272.69 1002.31 1272.77 1004.92
  C 1273.09 1014.89 1275.20 1025.00 1277.78 1035.24
  Q 1278.70 1038.88 1278.92 1040.82
  C 1279.73 1047.93 1282.04 1054.57 1285.22 1064.10
  C 1286.68 1068.47 1287.19 1072.50 1288.69 1076.15
  C 1291.17 1082.18 1292.43 1084.65 1294.38 1090.58
  Q 1296.00 1095.48 1298.90 1100.47
  A 11.05 10.89 21.6 0 1 1299.90 1102.74
  C 1300.76 1105.55 1301.18 1107.23 1302.57 1109.38
  Q 1305.03 1113.21 1306.66 1116.90
  C 1309.23 1122.72 1312.65 1127.38 1315.26 1132.64
  C 1317.06 1136.28 1320.02 1139.38 1321.84 1143.35
  A 9.86 9.75 12.7 0 0 1323.30 1145.63
  C 1327.63 1150.65 1330.57 1156.87 1334.96 1161.28
  A 2.31 2.22 -83.6 0 1 1335.32 1161.75
  L 1337.09 1164.98
  A 3.50 3.41 8.0 0 0 1337.78 1165.87
  Q 1340.87 1168.76 1342.67 1171.89
  A 6.40 6.39 5.6 0 0 1344.03 1173.54
  C 1346.99 1176.11 1349.54 1179.74 1352.51 1183.01
  C 1367.66 1199.72 1383.14 1214.20 1400.25 1228.24
  Q 1409.95 1236.20 1424.67 1246.13
  Q 1432.23 1251.23 1434.88 1252.61
  Q 1437.48 1253.96 1438.94 1255.13
  C 1441.73 1257.35 1445.57 1258.73 1448.11 1260.35
  C 1450.69 1261.99 1452.30 1263.18 1454.83 1264.26
  Q 1461.18 1266.96 1468.62 1271.40
  Q 1469.65 1272.02 1472.79 1272.68
  A 0.62 0.46 53.3 0 1 1472.89 1272.71
  L 1481.95 1277.15
  Z"
/>
</svg>
