<?xml version="1.0" encoding="UTF-8" standalone="no"?>
<!DOCTYPE svg PUBLIC "-//W3C//DTD SVG 1.1//EN" "http://www.w3.org/Graphics/SVG/1.1/DTD/svg11.dtd">
<svg xmlns="http://www.w3.org/2000/svg" version="1.1" viewBox="0.00 0.00 800.00 800.00">
<g stroke-width="2.00" fill="none" stroke-linecap="butt">
<path stroke="#f3801d" vector-effect="non-scaling-stroke" d="
  M 194.65 330.30
  L 72.67 235.56"
/>
<path stroke="#98b22c" vector-effect="non-scaling-stroke" d="
  M 194.56 469.69
  Q 133.72 516.67 73.32 563.86
  A 0.73 0.02 -26.3 0 1 72.79 564.14
  Q 72.68 564.20 72.54 564.29"
/>
<path stroke="#3b97a4" vector-effect="non-scaling-stroke" d="
  M 642.68 678.00
  L 523.67 585.67"
/>
</g>
<path fill="#ea4335" d="
  M 194.65 330.30
  L 72.67 235.56
  Q 114.48 154.05 186.31 102.38
  C 262.20 47.78 353.89 24.83 446.89 36.22
  Q 559.77 50.04 644.87 128.54
  A 0.61 0.61 0.0 0 1 644.89 129.42
  L 540.64 233.67
  A 0.51 0.51 0.0 0 1 539.93 233.68
  C 511.92 207.43 477.77 189.96 440.06 182.99
  C 331.71 162.94 229.81 227.47 194.65 330.30
  Z"
/>
<path fill="#fbbc05" d="
  M 72.67 235.56
  L 194.65 330.30
  Q 191.72 339.38 189.96 346.24
  Q 175.13 404.06 192.14 461.21
  Q 193.43 465.57 194.56 469.69
  Q 133.72 516.67 73.32 563.86
  A 0.73 0.02 -26.3 0 1 72.79 564.14
  Q 72.68 564.20 72.54 564.29
  Q 45.75 510.82 37.42 454.51
  Q 20.47 339.97 72.67 235.56
  Z"
/>
<path fill="#4285f4" d="
  M 642.68 678.00
  L 523.67 585.67
  C 560.72 560.66 585.86 525.06 596.03 481.52
  Q 596.70 478.68 597.09 475.83
  A 0.44 0.43 -86.0 0 0 596.66 475.33
  L 400.62 475.33
  A 0.62 0.61 -0.0 0 1 400.00 474.72
  L 400.00 333.95
  A 0.61 0.61 0.0 0 1 400.61 333.34
  L 745.02 333.34
  A 0.43 0.42 85.2 0 1 745.44 333.70
  C 760.72 421.75 749.85 515.41 707.74 593.97
  Q 682.53 641.00 642.68 678.00
  Z"
/>
<path fill="#34a853" d="
  M 194.56 469.69
  C 222.27 551.65 295.07 613.04 382.46 620.14
  C 431.85 624.16 482.24 613.22 523.67 585.67
  L 642.68 678.00
  C 576.41 738.82 489.35 767.17 399.76 766.58
  Q 293.22 765.87 205.67 710.83
  Q 119.47 656.63 72.54 564.29
  Q 72.68 564.20 72.79 564.14
  A 0.73 0.02 -26.3 0 0 73.32 563.86
  Q 133.72 516.67 194.56 469.69
  Z"
/>
</svg>
