<?xml version="1.0" encoding="UTF-8"?>
<svg id="Calque_1" data-name="Calque 1" xmlns="http://www.w3.org/2000/svg" viewBox="0 0 707.26 665.81">
  <defs>
    <style>
      .cls-1 {
        fill: #edc0d0;
      }

      .cls-2 {
        font-family: Poppins-ExtraBold, Poppins;
        font-size: 18.13px;
        font-weight: 700;
      }

      .cls-2, .cls-3 {
        fill: #402985;
      }

      .cls-4 {
        fill: #fff;
      }

      .cls-4, .cls-5 {
        stroke-dasharray: .2 4 .2 4;
        stroke-linecap: round;
        stroke-linejoin: round;
      }

      .cls-4, .cls-5, .cls-6 {
        stroke: #b4417a;
      }

      .cls-4, .cls-7, .cls-8 {
        stroke-width: 3px;
      }

      .cls-9, .cls-6 {
        fill: #b4417a;
      }

      .cls-5, .cls-6 {
        stroke-width: 2px;
      }

      .cls-5, .cls-7, .cls-8 {
        fill: none;
      }

      .cls-6, .cls-7, .cls-8 {
        stroke-miterlimit: 10;
      }

      .cls-10 {
        opacity: .38;
      }

      .cls-7 {
        stroke: #402985;
      }

      .cls-8 {
        stroke: #000;
      }
    </style>
  </defs>
  <g class="cls-10">
    <path class="cls-1" d="M447.25,360.72c18.11,56.14,9.58,79.13-.3,103.81-41.28,103.03-114.99,46.3-130.09,22.53s-30.1-52.04-57.43-58.82c-22.37-5.55-48.89,5-67.54-8.55-17.25-12.53-17.02-38.18-12.54-59.03,19.88-92.48,92.48-171.7,182.88-199.54,24.49-7.54,53.27-10.85,73.9,4.36,20.16,14.87,25.84,43.68,19.96,68.03s-38.55,35.02-8.82,127.22Z"/>
  </g>
  <path d="M489.79,110.8s40.99,40.98,40.99,40.98c0,0,.27.27.27.27,0,0-.28.28-.28.28,0,0-165.43,165.01-165.43,165.01,0,0-.84.84-.84.84,0,0-.85-.85-.85-.85-11.98-12.17-29.19-28.82-40.95-40.87,0,0-1.08-1.08-1.08-1.08,0,0,1.09-1.08,1.09-1.08l20.82-20.69c18.61-18.35,44.03-43.45,62.76-61.67,23.29-22.86,59.83-58.17,83.51-81.13h0ZM489.79,111.1c-23.41,23.75-59.25,59.99-82.49,83.3-18.24,18.4-43.38,43.38-61.74,61.65,0,0-20.68,20.41-20.68,20.41v-2.17c6.77,6.88,13.57,13.72,20.28,20.63,0,0,20.2,20.7,20.2,20.7,0,0-1.7,0-1.7,0,0,0,166.57-163.86,166.57-163.86,0,0,0,.55,0,.55,0,0-40.44-41.22-40.44-41.22h0Z"/>
  <line class="cls-8" x1="394.51" y1="320.05" x2="321.79" y2="246.64"/>
  <line class="cls-5" x1="385.57" y1="317.35" x2="324.41" y2="255.61"/>
  <g>
    <line class="cls-7" x1="255.49" y1="554.86" x2="255.52" y2="521.33"/>
    <polygon class="cls-3" points="263 523.52 255.54 510.56 248.04 523.51 263 523.52"/>
  </g>
  <g>
    <line class="cls-7" x1="284.32" y1="554.86" x2="284.36" y2="521.33"/>
    <polygon class="cls-3" points="291.84 523.52 284.37 510.56 276.88 523.51 291.84 523.52"/>
  </g>
  <g>
    <line class="cls-7" x1="314.16" y1="554.86" x2="314.19" y2="521.33"/>
    <polygon class="cls-3" points="321.67 523.52 314.21 510.56 306.71 523.51 321.67 523.52"/>
  </g>
  <g>
    <line class="cls-7" x1="342.99" y1="554.86" x2="343.03" y2="521.33"/>
    <polygon class="cls-3" points="350.5 523.52 343.04 510.56 335.55 523.51 350.5 523.52"/>
  </g>
  <g>
    <line class="cls-7" x1="371.83" y1="554.86" x2="371.86" y2="521.33"/>
    <polygon class="cls-3" points="379.34 523.52 371.87 510.56 364.38 523.51 379.34 523.52"/>
  </g>
  <g>
    <line class="cls-7" x1="400.66" y1="554.86" x2="400.7" y2="521.33"/>
    <polygon class="cls-3" points="408.17 523.52 400.71 510.56 393.22 523.51 408.17 523.52"/>
  </g>
  <g>
    <line class="cls-7" x1="429.5" y1="554.86" x2="429.53" y2="521.33"/>
    <polygon class="cls-3" points="437.01 523.52 429.54 510.56 422.05 523.51 437.01 523.52"/>
  </g>
  <g>
    <path d="M317.83,348.22l-26.45-25.98s-.24-.24-.24-.24l.1-.34,5.09-17.83.05-.18c.07-.14,27.63-27.88,27.72-28.03,0,0,.78-.79.78-.79l.8.79c11.79,11.75,28.85,28.22,40.31,39.99-4.51,4.53-10.77,10.48-15.41,14.99-4.86,4.68-9.77,9.3-14.69,13.92-5.31,1.23-12.69,2.58-18.07,3.69h0ZM317.91,347.93c5.09-1.52,12.38-3.58,17.39-4.97,0,0-.39.22-.39.22,6.62-6.98,14.03-14.67,20.82-21.56,2.32-2.39,4.68-4.74,7.03-7.1,0,0,0,2.16,0,2.16-5.65-5.62-13.75-13.87-19.38-19.68,0,0-19.27-19.79-19.27-19.79,0,0,1.58,0,1.58,0,.13-.12-28.97,28.45-27.86,27.07,0,0-5.48,17.71-5.48,17.71l-.14-.57s25.71,26.5,25.71,26.5h0Z"/>
    <path class="cls-9" d="M297.53,327.96s14.88,14.25,14.88,14.25l.43.41c-6.7,7.02-16.33,16.81-23.17,23.88,0,0-.78.8-.78.8l-.91-.81c-5.47-4.94-10.69-10.15-15.85-15.41,8.1-7.94,16.8-15.76,25.41-23.13h0ZM297.53,328.26c-6.97,7.89-14.66,16.54-22.03,23.98,0,0,0-2.24,0-2.24,2.42,2.41,4.83,4.83,7.2,7.29,2.36,2.47,4.7,4.96,6.98,7.51,0,0-1.7,0-1.7,0,6.94-6.67,16.69-16.06,23.56-22.59,0,0,0,.87,0,.87l-14.01-14.82h0Z"/>
  </g>
  <path class="cls-6" d="M287.08,399.38c0,6.72-4.53,12.18-10.11,12.18s-10.11-5.45-10.11-12.18,10.11-27.04,10.11-27.04c0,0,10.11,20.31,10.11,27.04Z"/>
  <text class="cls-2" transform="translate(301.59 425.77)"><tspan x="0" y="0">test</tspan></text>
  <path d="M491.52,507.51c-62,.08-124.32,1.91-186.35.91-12.95-.23-43.33-.42-55.9-.51,0,0-9.32-.04-9.32-.04-1.03-.04-3.61.07-4.73-.21-5.77-.93-9.77-6.68-9.23-12.39-.04-9.53-.06-25.42-.13-34.94,0-1.48-.06-5.55-.05-6.99-.08-5.92,4.96-11.24,10.9-11.41,86.51-.77,179.3-1.36,265.58-.03,0,0,.82.01.82.01,0,0-.01.79-.01.79l-.47,35.4s-.13,17.7-.13,17.7c.45,6.12-4.75,11.88-10.96,11.71h0ZM491.52,507.21c6,.11,11.05-5.45,10.55-11.41,0,0-.13-17.7-.13-17.7,0,0-.47-35.4-.47-35.4l.81.81c-86.19,1.35-179.09.67-265.51.02-5.18.07-9.64,4.65-9.65,9.83,0,1.42-.06,5.49-.06,6.98-.1,8.4-.07,24.16-.13,32.61.02,1.31-.06,3.34.03,4.62.33,4.49,4,8.43,8.43,9.13,2.78.34,10.88.05,13.88.11,12.38-.01,43.07-.39,55.9-.51,62.03-1,124.35.83,186.35.91h0Z"/>
  <path d="M267.67,484.19c.08,12.7-13.11,18.73-22.05,9.27-8.5-8.84-3.37-23.27,9.27-23.5,7.8-.06,12.98,6.98,12.78,14.23h0ZM267.37,484.19c-.08-9.81-13.67-14.54-20.41-7.93-6.07,5.49-5.06,16.32,3.41,18.83,7.21,2.13,16.99-2.68,16.99-10.9h0Z"/>
  <path d="M296.33,484.19c.08,12.7-13.11,18.73-22.05,9.27-8.5-8.84-3.37-23.27,9.27-23.5,7.8-.06,12.98,6.98,12.78,14.23h0ZM296.03,484.19c-.08-9.81-13.67-14.54-20.41-7.93-6.07,5.49-5.06,16.32,3.41,18.83,7.21,2.13,16.99-2.68,16.99-10.9h0Z"/>
  <path d="M325.73,484.19c.08,12.7-13.11,18.73-22.05,9.27-8.5-8.84-3.37-23.27,9.27-23.5,7.8-.06,12.98,6.98,12.78,14.23h0ZM325.43,484.19c-.08-9.81-13.67-14.54-20.41-7.93-6.07,5.49-5.06,16.32,3.41,18.83,7.21,2.13,16.99-2.68,16.99-10.9h0Z"/>
  <path d="M355.14,484.19c.08,12.7-13.11,18.73-22.05,9.27-8.5-8.84-3.37-23.27,9.27-23.5,7.8-.06,12.98,6.98,12.78,14.23h0ZM354.84,484.19c-.08-9.81-13.67-14.54-20.41-7.93-6.07,5.49-5.06,16.32,3.41,18.83,7.21,2.13,16.99-2.68,16.99-10.9h0Z"/>
  <path d="M384.54,484.19c.08,12.7-13.11,18.73-22.05,9.27-8.5-8.84-3.37-23.27,9.27-23.5,7.8-.06,12.98,6.98,12.78,14.23h0ZM384.24,484.19c-.08-9.81-13.67-14.54-20.41-7.93-6.07,5.49-5.06,16.32,3.41,18.83,7.21,2.13,16.99-2.68,16.99-10.9h0Z"/>
  <path d="M413.94,484.19c.08,12.7-13.11,18.73-22.05,9.27-8.5-8.84-3.37-23.27,9.27-23.5,7.8-.06,12.98,6.98,12.78,14.23h0ZM413.64,484.19c-.08-9.81-13.67-14.54-20.41-7.93-6.07,5.49-5.06,16.32,3.41,18.83,7.21,2.13,16.99-2.68,16.99-10.9h0Z"/>
  <path d="M443.34,484.19c.08,12.7-13.11,18.73-22.05,9.27-8.5-8.84-3.37-23.27,9.27-23.5,7.8-.06,12.98,6.98,12.78,14.23h0ZM443.04,484.19c-.08-9.81-13.67-14.54-20.41-7.93-6.07,5.49-5.06,16.32,3.41,18.83,7.21,2.13,16.99-2.68,16.99-10.9h0Z"/>
  <line class="cls-4" x1="243.78" y1="461.52" x2="439.24" y2="461.52"/>
</svg>